<svg width="66" height="66" viewBox="0 0 66 66" fill="none" xmlns="http://www.w3.org/2000/svg">
<path d="M42.5183 57.0001H7.16177C6.58248 57.0001 6.05313 56.6589 5.80344 56.137L5.45387 55.3944C0.619815 45.0779 -1.04813 33.6574 0.63979 22.3775L0.959397 20.2198C1.01932 19.8084 1.23905 19.4471 1.57864 19.2163C1.91822 18.9754 2.32771 18.8951 2.72722 18.9654L10.9471 20.5911C11.7561 20.7517 12.2855 21.5445 12.1257 22.3574C11.9659 23.1703 11.1768 23.7022 10.3678 23.5416L3.68604 22.2169L3.59616 22.819C2.0181 33.4667 3.57618 44.2449 8.12059 53.9894H40.7405C38.4533 42.4987 31.0324 32.5435 20.6252 27.1443C19.8861 26.763 19.6065 25.8498 19.986 25.1172C20.3655 24.3846 21.2644 24.0935 22.0035 24.4749C33.7691 30.5765 41.9989 42.0973 43.9965 55.2639C44.0664 55.6955 43.9366 56.137 43.6469 56.4682C43.3672 56.8094 42.9578 57.0001 42.5183 57.0001Z" fill="#E8CDB2"/>
<path d="M58.8578 57H23.5012C23.0618 57 22.6523 56.8094 22.3626 56.4782C22.073 56.147 21.9531 55.7054 22.0131 55.2739C24.6498 37.9325 37.9235 24.0032 55.0524 20.6111L63.2723 18.9854C63.6719 18.9051 64.0913 18.9954 64.4209 19.2363C64.7505 19.4771 64.9802 19.8384 65.0402 20.2398L65.3598 22.3975C67.0477 33.6774 65.3798 45.0979 60.5457 55.4144L60.1961 56.157C59.9664 56.6588 59.4371 57 58.8578 57ZM25.289 53.9894H57.9089C62.4434 44.2449 64.0014 33.4667 62.4134 22.829L62.3235 22.2269L55.6417 23.5516C40.3206 26.5923 28.3253 38.7052 25.289 53.9894Z" fill="#E8CDB2"/>
<path d="M3.37716 40.913C3.1075 40.913 2.83783 40.8428 2.58813 40.6822C1.88899 40.2406 1.66926 39.3174 2.10872 38.6048C8.81048 27.7765 18.928 17.9015 32.2017 9.24085C32.7011 8.91972 33.3403 8.91972 33.8297 9.24085C38.7037 12.4221 43.2282 15.8242 47.2732 19.3667C47.8924 19.9086 47.9623 20.862 47.423 21.4943C46.8737 22.1165 45.9348 22.1867 45.3056 21.6448C41.5902 18.3933 37.4553 15.2521 33.0107 12.3117C20.5161 20.5911 10.9778 29.9743 4.6456 40.2105C4.36595 40.6621 3.87655 40.913 3.37716 40.913Z" fill="#E8CDB2"/>
<path d="M62.653 40.9128C62.1536 40.9128 61.6642 40.662 61.3746 40.2003C58.8677 36.146 55.8014 32.1719 52.2558 28.3584C51.6865 27.7462 51.7264 26.8029 52.3257 26.2308C52.925 25.6689 53.8738 25.699 54.4431 26.3011C58.1186 30.2451 61.3047 34.3897 63.9114 38.6047C64.3509 39.3072 64.1312 40.2405 63.432 40.682C63.1923 40.8426 62.9227 40.9128 62.653 40.9128Z" fill="#E8CDB2"/>
</svg>
